<svg width="128" height="45" viewBox="0 0 128 45" fill="none" xmlns="http://www.w3.org/2000/svg">
<rect x="0.35" y="0.35" width="61.3" height="44.3" rx="11.65" stroke="black" stroke-width="0.7"/>
<path d="M35.2582 27.434V29H25.9522V27.776L31.2622 22.826C31.9102 22.226 32.3482 21.71 32.5762 21.278C32.8042 20.834 32.9182 20.39 32.9182 19.946C32.9182 19.298 32.6722 18.788 32.1802 18.416C31.6882 18.044 30.9802 17.858 30.0562 17.858C28.5802 17.858 27.4522 18.308 26.6722 19.208L25.4482 18.164C25.9642 17.552 26.6302 17.084 27.4462 16.76C28.2742 16.424 29.1922 16.256 30.2002 16.256C31.5922 16.256 32.6902 16.574 33.4942 17.21C34.3102 17.846 34.7182 18.698 34.7182 19.766C34.7182 20.426 34.5622 21.056 34.2502 21.656C33.9502 22.256 33.3802 22.946 32.5402 23.726L28.5802 27.434H35.2582ZM43.2717 29.144C42.2517 29.144 41.3457 28.886 40.5537 28.37C39.7737 27.842 39.1617 27.092 38.7177 26.12C38.2857 25.148 38.0697 24.008 38.0697 22.7C38.0697 21.392 38.2857 20.252 38.7177 19.28C39.1617 18.308 39.7737 17.564 40.5537 17.048C41.3457 16.52 42.2517 16.256 43.2717 16.256C44.2917 16.256 45.1917 16.52 45.9717 17.048C46.7637 17.564 47.3757 18.308 47.8077 19.28C48.2517 20.252 48.4737 21.392 48.4737 22.7C48.4737 24.008 48.2517 25.148 47.8077 26.12C47.3757 27.092 46.7637 27.842 45.9717 28.37C45.1917 28.886 44.2917 29.144 43.2717 29.144ZM43.2717 27.542C44.2917 27.542 45.1137 27.122 45.7377 26.282C46.3617 25.43 46.6737 24.236 46.6737 22.7C46.6737 21.164 46.3617 19.976 45.7377 19.136C45.1137 18.284 44.2917 17.858 43.2717 17.858C42.2517 17.858 41.4297 18.284 40.8057 19.136C40.1817 19.976 39.8697 21.164 39.8697 22.7C39.8697 24.236 40.1817 25.43 40.8057 26.282C41.4297 27.122 42.2517 27.542 43.2717 27.542Z" fill="black"/>
<rect x="70" width="58" height="45" rx="12" fill="#F6F6F6"/>
<path d="M112 26L107.5 21.5H116.5L112 26Z" fill="black"/>
<path d="M84.9862 23.204C84.0622 23.204 83.3062 22.892 82.7182 22.268C82.1422 21.632 81.8542 20.786 81.8542 19.73C81.8542 18.674 82.1422 17.834 82.7182 17.21C83.3062 16.574 84.0622 16.256 84.9862 16.256C85.9102 16.256 86.6602 16.574 87.2362 17.21C87.8122 17.834 88.1002 18.674 88.1002 19.73C88.1002 20.786 87.8122 21.632 87.2362 22.268C86.6602 22.892 85.9102 23.204 84.9862 23.204ZM92.4922 16.4H94.6342L86.0302 29H83.8882L92.4922 16.4ZM84.9862 21.728C85.3942 21.728 85.7122 21.56 85.9402 21.224C86.1802 20.888 86.3002 20.39 86.3002 19.73C86.3002 19.07 86.1802 18.572 85.9402 18.236C85.7122 17.9 85.3942 17.732 84.9862 17.732C84.5902 17.732 84.2722 17.906 84.0322 18.254C83.7922 18.59 83.6722 19.082 83.6722 19.73C83.6722 20.378 83.7922 20.876 84.0322 21.224C84.2722 21.56 84.5902 21.728 84.9862 21.728ZM93.5362 29.144C92.9362 29.144 92.3962 29.006 91.9162 28.73C91.4482 28.442 91.0822 28.034 90.8182 27.506C90.5542 26.978 90.4222 26.366 90.4222 25.67C90.4222 24.974 90.5542 24.362 90.8182 23.834C91.0822 23.306 91.4482 22.904 91.9162 22.628C92.3962 22.34 92.9362 22.196 93.5362 22.196C94.4602 22.196 95.2102 22.514 95.7862 23.15C96.3742 23.774 96.6682 24.614 96.6682 25.67C96.6682 26.726 96.3742 27.572 95.7862 28.208C95.2102 28.832 94.4602 29.144 93.5362 29.144ZM93.5362 27.668C93.9442 27.668 94.2622 27.5 94.4902 27.164C94.7302 26.816 94.8502 26.318 94.8502 25.67C94.8502 25.022 94.7302 24.53 94.4902 24.194C94.2622 23.846 93.9442 23.672 93.5362 23.672C93.1402 23.672 92.8222 23.84 92.5822 24.176C92.3422 24.512 92.2222 25.01 92.2222 25.67C92.2222 26.33 92.3422 26.828 92.5822 27.164C92.8222 27.5 93.1402 27.668 93.5362 27.668Z" fill="black"/>
</svg>
